{"accessors" : [{"bufferView" : 0, "byteOffset" : 0, "componentType" : 5123, "count" : 13548, "type" : "SCALAR", "max" : [2375], "min" : [0]}, {"bufferView" : 1, "byteOffset" : 0, "componentType" : 5126, "count" : 2376, "type" : "VEC3", "max" : [794.054809570313, 1544.16796875, 1534.40551757813], "min" : [-794.054809570313, -1544.16809082031, -1534.40551757813]}, {"bufferView" : 1, "byteOffset" : 12, "componentType" : 5126, "count" : 2376, "type" : "VEC3", "max" : [0.999827086925507, 0.997911751270294, 0.999645411968231], "min" : [-0.999601125717163, -0.996264755725861, -0.999492168426514]}, {"bufferView" : 1, "byteOffset" : 24, "componentType" : 5126, "count" : 2376, "type" : "VEC3", "max" : [0.99753999710083, 0.973996222019196, 0.992414474487305], "min" : [-0.998745322227478, -0.968630015850067, -0.993040919303894]}, {"bufferView" : 1, "byteOffset" : 36, "componentType" : 5126, "count" : 2376, "type" : "VEC3", "max" : [0.995265483856201, 0.760808885097504, 0.706041634082794], "min" : [-0.998726546764374, -0.996992945671082, -0.931781589984894]}, {"bufferView" : 1, "byteOffset" : 48, "componentType" : 5126, "count" : 2376, "type" : "VEC2", "max" : [0.985377967357636, -0.00869784876704216], "min" : [0.0109413713216782, -0.986239850521088]}, {"bufferView" : 1, "byteOffset" : 56, "componentType" : 5126, "count" : 2376, "type" : "VEC2", "max" : [0.985377967357636, -0.00869784876704216], "min" : [0.0109413713216782, -0.986239850521088]}], "asset" : {"generator" : "Aspose.3D 20.2.1", "version" : "2.0"}, "buffers" : [{"uri" : "buffer.bin", "byteLength" : 179168}], "bufferViews" : [{"buffer" : 0, "byteOffset" : 0, "byteLength" : 27096, "target" : 34963}, {"buffer" : 0, "byteOffset" : 27100, "byteLength" : 152064, "byteStride" : 64, "target" : 34962}], "materials" : [{"pbrMetallicRoughness" : {"baseColorFactor" : [0.587999999523163, 0.587999999523163, 0.587999999523163, 1], "metallicFactor" : 0, "roughnessFactor" : 0}, "emissiveFactor" : [0, 0, 0], "alphaMode" : "OPAQUE", "doubleSided" : false}], "meshes" : [{"primitives" : [{"attributes" : {"POSITION" : 1, "NORMAL" : 2, "BINORMAL" : 3, "TANGENT" : 4, "TEXCOORD_0" : 5, "TEXCOORD_1" : 6}, "indices" : 0, "material" : 0, "mode" : 4}]}], "nodes" : [{"matrix" : [1, 0, 0, 0, 0, 2.22044604925031E-16, -1, 0, 0, 1, 2.22044604925031E-16, 0, 0, 0, 0, 1], "mesh" : 0, "name" : "SM_Cliff"}], "scene" : 0, "scenes" : [{"nodes" : [0]}]}